<svg width="937" height="473" xmlns="http://www.w3.org/2000/svg" xmlns:xlink="http://www.w3.org/1999/xlink" overflow="hidden"><g><rect x="0" y="0" width="937" height="472.668" fill="#FFFFFF"/><path d="M7.50001 29.2079C7.50001 17.7779 16.7527 8.51199 28.1666 8.51199L909.833 8.51199C921.247 8.51199 930.5 17.7779 930.5 29.2079L930.5 111.991C930.5 123.421 921.247 132.687 909.833 132.687L28.1666 132.687C16.7527 132.687 7.50001 123.421 7.50001 111.991Z" stroke="#C9C9C9" stroke-width="2.99893" stroke-miterlimit="8" fill="#E7E6E6" fill-rule="evenodd"/><path d="M7.50001 177.251C7.50001 164.807 17.5739 154.719 30.0007 154.719L907.999 154.719C920.426 154.719 930.5 164.807 930.5 177.251L930.5 267.377C930.5 279.821 920.426 289.909 907.999 289.909L30.0007 289.909C17.5739 289.909 7.50001 279.821 7.50001 267.377Z" stroke="#C9C9C9" stroke-width="2.99893" stroke-miterlimit="8" fill="#E7E6E6" fill-rule="evenodd"/><path d="M32.5 204.789C32.5 197.599 38.3204 191.771 45.5002 191.771L266.5 191.771C273.68 191.771 279.5 197.599 279.5 204.789L279.5 256.863C279.5 264.053 273.68 269.881 266.5 269.881L45.5002 269.881C38.3204 269.881 32.5 264.053 32.5 256.863Z" stroke="#C9C9C9" stroke-width="2.99893" stroke-miterlimit="8" fill="#FFFFFF" fill-rule="evenodd"/><text font-family="Aptos,Aptos_MSFontService,sans-serif" font-weight="700" font-size="16" transform="matrix(1 0 0 1.00141 45.2614 217)">Retrieval Controller</text><text font-family="Aptos,Aptos_MSFontService,sans-serif" font-weight="700" font-size="16" transform="matrix(1 0 0 1.00141 187.637 217)">:</text><text font-family="Aptos,Aptos_MSFontService,sans-serif" font-weight="400" font-size="16" transform="matrix(1 0 0 1.00141 45.2614 236)">Allows</text><text font-family="Aptos,Aptos_MSFontService,sans-serif" font-weight="400" font-size="16" transform="matrix(1 0 0 1.00141 94.3306 236)">definition</text><text font-family="Aptos,Aptos_MSFontService,sans-serif" font-weight="400" font-size="16" transform="matrix(1 0 0 1.00141 163.139 236)">of</text><text font-family="Aptos,Aptos_MSFontService,sans-serif" font-weight="400" font-size="16" transform="matrix(1 0 0 1.00141 180.133 236)">similarity</text><text font-family="Aptos,Aptos_MSFontService,sans-serif" font-weight="400" font-size="16" transform="matrix(1 0 0 1.00141 45.2614 255)">measures</text><text font-family="Aptos,Aptos_MSFontService,sans-serif" font-weight="400" font-size="16" transform="matrix(1 0 0 1.00141 117.516 255)">and</text><text font-family="Aptos,Aptos_MSFontService,sans-serif" font-weight="400" font-size="16" transform="matrix(1 0 0 1.00141 147.172 255)">weights</text><text font-family="Aptos,Aptos_MSFontService,sans-serif" font-weight="400" font-size="16" transform="matrix(1 0 0 1.00141 200.22 255)">.</text><path d="M329.5 204.789C329.5 197.599 335.32 191.771 342.5 191.771L595.5 191.771C602.68 191.771 608.5 197.599 608.5 204.789L608.5 256.863C608.5 264.053 602.68 269.881 595.5 269.881L342.5 269.881C335.32 269.881 329.5 264.053 329.5 256.863Z" stroke="#C9C9C9" stroke-width="2.99893" stroke-miterlimit="8" fill="#FFFFFF" fill-rule="evenodd"/><text font-family="Aptos,Aptos_MSFontService,sans-serif" font-weight="700" font-size="16" transform="matrix(1 0 0 1.00141 342.183 226)">Instance Controller:</text><text font-family="Aptos,Aptos_MSFontService,sans-serif" font-weight="400" font-size="16" transform="matrix(1 0 0 1.00141 342.183 245)">Management of the CBR instance</text><text font-family="Aptos,Aptos_MSFontService,sans-serif" font-weight="400" font-size="15" transform="matrix(1 0 0 1.00141 572.494 245)">.</text><path d="M662.5 204.789C662.5 197.599 668.32 191.771 675.5 191.771L896.5 191.771C903.68 191.771 909.5 197.599 909.5 204.789L909.5 256.863C909.5 264.053 903.68 269.881 896.5 269.881L675.5 269.881C668.32 269.881 662.5 264.053 662.5 256.863Z" stroke="#C9C9C9" stroke-width="2.99893" stroke-miterlimit="8" fill="#FFFFFF" fill-rule="evenodd"/><text font-family="Aptos,Aptos_MSFontService,sans-serif" font-weight="700" font-size="16" transform="matrix(1 0 0 1.00141 675.442 216)">Database Controller:</text><text font-family="Aptos,Aptos_MSFontService,sans-serif" font-weight="400" font-size="16" transform="matrix(1 0 0 1.00141 675.442 235)">Storage and lookup of logs,</text><text font-family="Aptos,Aptos_MSFontService,sans-serif" font-weight="400" font-size="16" transform="matrix(1 0 0 1.00141 675.442 254)">traces and metadata.</text><path d="M7.50001 334.64C7.50001 320.444 18.9916 308.936 33.1672 308.936L237.833 308.936C252.008 308.936 263.5 320.444 263.5 334.64L263.5 437.451C263.5 451.646 252.008 463.154 237.833 463.154L33.1672 463.154C18.9916 463.154 7.50001 451.646 7.50001 437.451Z" stroke="#C9C9C9" stroke-width="2.99893" stroke-miterlimit="8" fill="#E7E6E6" fill-rule="evenodd"/><path d="M27.5 365.016C27.5 356.167 34.6637 348.993 43.5004 348.993L227.5 348.993C236.336 348.993 243.5 356.167 243.5 365.016L243.5 429.106C243.5 437.955 236.336 445.129 227.5 445.129L43.5004 445.129C34.6637 445.129 27.5 437.955 27.5 429.106Z" stroke="#C9C9C9" stroke-width="2.99893" stroke-miterlimit="8" fill="#FFFFFF" fill-rule="evenodd"/><text font-family="Aptos,Aptos_MSFontService,sans-serif" font-weight="700" font-size="16" transform="matrix(1 0 0 1.00141 41.4002 374)">ProCAKE</text><text font-family="Aptos,Aptos_MSFontService,sans-serif" font-weight="700" font-size="16" transform="matrix(1 0 0 1.00141 109.409 374)">Framework:</text><text font-family="Aptos,Aptos_MSFontService,sans-serif" font-weight="400" font-size="16" transform="matrix(1 0 0 1.00141 41.4002 393)">Provides process</text><text font-family="Aptos,Aptos_MSFontService,sans-serif" font-weight="400" font-size="16" transform="matrix(1 0 0 1.00141 159.278 393)">-</text><text font-family="Aptos,Aptos_MSFontService,sans-serif" font-weight="400" font-size="16" transform="matrix(1 0 0 1.00141 164.776 393)">oriented</text><text font-family="Aptos,Aptos_MSFontService,sans-serif" font-weight="400" font-size="16" transform="matrix(1 0 0 1.00141 41.4002 412)">similarity measures and</text><text font-family="Aptos,Aptos_MSFontService,sans-serif" font-weight="400" font-size="16" transform="matrix(1 0 0 1.00141 41.4002 431)">retrieval</text><text font-family="Aptos,Aptos_MSFontService,sans-serif" font-weight="400" font-size="16" transform="matrix(1 0 0 1.00141 100.926 431)">functions</text><text font-family="Aptos,Aptos_MSFontService,sans-serif" font-weight="400" font-size="16" transform="matrix(1 0 0 1.00141 166.182 431)">.</text><g><g><g><path d="M79 64.958C78.8908 62.049 77.5419 59.3257 75.294 57.476 72.161 54.815 67.865 52.525 61.864 50.298 63.9691 50.0683 66.0333 49.554 68 48.769 68 48.769 65.738 47.416 64.337 41.879 63.448 38.4 66.85 29.702 66.879 23.579 66.879 18.679 65.487 16.485 62.858 14.997 61.341 14.137 57.843 14.929 57.843 14.929 57.843 14.929 56.04 11.5 49.99 9.62 45.0193 8.26492 39.7138 8.94124 35.242 11.5 31.5 13.92 29.7 16.578 29.608 25.72 29.531 34.099 30.681 41.54 30.149 45.048 29.9031 46.9903 29.1632 48.8372 28 50.412 29.8331 50.5662 31.6739 50.6066 33.512 50.533 27.838 52.686 23.729 54.908 20.705 57.475 18.4481 59.336 17.0988 62.0764 17 65L17 82.569 17.89 83.163C22.79 86.428 35.583 88.055 48.283 88.055 61.09 88.055 73.8 86.4 78.2 83.1L79 82.5ZM62.505 62C63.6096 62 64.505 62.8954 64.505 64 64.505 65.1046 63.6096 66 62.505 66 61.4004 66 60.505 65.1046 60.505 64 60.505 62.8954 61.4004 62 62.505 62ZM36 27.939C36.4873 27.9092 36.9725 27.8508 37.453 27.764 40.8081 27.3219 44.0825 26.4009 47.176 25.029 50.653 23.28 52.646 22.422 55.531 19.81 55.9116 19.4353 56.5238 19.4401 56.8985 19.8207 57.0407 19.9652 57.134 20.1507 57.165 20.351 57.395 21.941 57.993 25.44 58.788 26.835 59.1472 27.5211 59.5521 28.1822 60 28.814L60 33C60 39.6274 54.6274 45 48 45 41.3726 45 36 39.6274 36 33ZM55.821 51.909C53.2823 52.6573 50.6466 53.0249 48 53 45.351 53.0253 42.7129 52.6573 40.172 51.908 41.3305 50.9602 42.0017 49.5418 42 48.045L42 47.819C45.8473 49.391 50.1577 49.391 54.005 47.819L54.005 48.041C53.9989 49.538 54.6665 50.9584 55.823 51.909ZM75 80.409C66.24 85.228 30.6 85.187 21.008 80.348L21.008 65.042C21.0826 63.2754 21.9185 61.6276 23.3 60.524 26.0818 58.3075 29.1837 56.5259 32.5 55.24L32.5 59.522C28.5628 59.7851 25.5028 63.054 25.5 67 25.5013 67.4243 25.6831 67.8279 26 68.11L26 74.5C26.0032 75.8923 26.9639 77.0994 28.32 77.415 28.825 78.0717 29.7668 78.1946 30.4235 77.6896 31.0802 77.1846 31.2031 76.2428 30.6981 75.5861 30.1931 74.9295 29.2513 74.8065 28.5946 75.3115 28.5722 75.3287 28.5504 75.3466 28.529 75.365 28.2072 75.1957 28.0041 74.8636 28 74.5L28 68.11C28.3173 67.8282 28.4992 67.4244 28.5 67 28.5 64.5147 30.5147 62.5 33 62.5L34 62.5C36.4853 62.5 38.5 64.5147 38.5 67 38.5013 67.4243 38.6831 67.8279 39 68.11L39 74.5C38.9963 74.8634 38.7936 75.1956 38.472 75.365 37.8448 74.8237 36.8977 74.8934 36.3564 75.5205 35.8151 76.1477 35.8848 77.0949 36.5119 77.6361 37.1391 78.1774 38.0863 78.1078 38.6275 77.4806 38.646 77.4592 38.6638 77.4374 38.681 77.415 40.0367 77.099 40.9969 75.892 41 74.5L41 68.11C41.3173 67.8282 41.4992 67.4244 41.5 67 41.4956 63.0552 38.4361 59.788 34.5 59.525L34.5 54.435C34.777 54.327 35.048 54.219 35.338 54.11 38.275 55.934 42.891 57 48 57 53.109 57 57.724 55.933 60.657 54.11 60.95 54.22 61.22 54.329 61.503 54.439L61.503 60.075C61.503 60.098 61.515 60.116 61.516 60.138 59.3752 60.6834 58.0819 62.8609 58.6273 65.0017 59.1727 67.1424 61.3502 68.4358 63.491 67.8904 65.6318 67.345 66.9251 65.1674 66.3797 63.0267 66.0182 61.6076 64.9101 60.4995 63.491 60.138 63.491 60.116 63.503 60.097 63.503 60.075L63.503 55.244C66.8196 56.5279 69.9217 58.3086 72.703 60.525 74.0767 61.6169 74.9136 63.2474 75 65Z" transform="matrix(1 0 0 1.00142 10 34.0481)"/><path d="M63.505 64C63.505 64.5523 63.0573 65 62.505 65 61.9527 65 61.505 64.5523 61.505 64 61.505 63.4477 61.9527 63 62.505 63 63.0573 63 63.505 63.4477 63.505 64Z" transform="matrix(1 0 0 1.00142 10 34.0481)"/></g></g></g><path d="M106.5 57.7485C106.5 52.1255 111.052 47.5671 116.667 47.5671L429.333 47.5671C434.948 47.5671 439.5 52.1255 439.5 57.7485L439.5 98.472C439.5 104.095 434.948 108.653 429.333 108.653L116.667 108.653C111.052 108.653 106.5 104.095 106.5 98.472Z" stroke="#C9C9C9" stroke-width="2.99893" stroke-miterlimit="8" fill="#FFFFFF" fill-rule="evenodd"/><text font-family="Aptos,Aptos_MSFontService,sans-serif" font-weight="700" font-size="16" transform="matrix(1 0 0 1.00141 118.999 74)">GUI for Physician:</text><text font-family="Aptos,Aptos_MSFontService,sans-serif" font-weight="400" font-size="16" transform="matrix(1 0 0 1.00141 118.999 93)">Defines queries and shows visualize results.</text><path d="M477.5 57.7484C477.5 52.1255 482.052 47.5671 487.667 47.5671L824.333 47.5671C829.948 47.5671 834.5 52.1255 834.5 57.7484L834.5 98.4721C834.5 104.095 829.948 108.653 824.333 108.653L487.667 108.653C482.052 108.653 477.5 104.095 477.5 98.4721Z" stroke="#C9C9C9" stroke-width="2.99893" stroke-miterlimit="8" fill="#FFFFFF" fill-rule="evenodd"/><text font-family="Aptos,Aptos_MSFontService,sans-serif" font-weight="700" font-size="16" transform="matrix(1 0 0 1.00141 489.46 74)">GUI for Admin:</text><text font-family="Aptos,Aptos_MSFontService,sans-serif" font-weight="400" font-size="16" transform="matrix(1 0 0 1.00141 489.46 93)">Management of the backend components.</text><path d="M232.042 116.153 232.421 183.783 229.422 183.799 229.043 116.17ZM226.052 117.688 230.5 108.653 235.049 117.638ZM235.411 182.264 230.964 191.299 226.415 182.315Z"/><path d="M786.999 108.153 787 184.044 784.001 184.044 784.001 108.153ZM789.998 182.543 785.5 191.552 781.002 182.543Z"/><path d="M658.072 107.152 658.072 146.234 469.5 146.234 470.999 144.733 470.999 183.777 468.001 183.777 468.001 143.231 656.572 143.231 655.073 144.733 655.073 107.152ZM473.998 182.275 469.5 191.285 465.002 182.275Z"/><path d="M786.948 268.33 788.053 301.18 785.056 301.281 783.951 268.431ZM791 299.578 786.807 308.735 782.008 299.882Z"/><path d="M1.49949 7.49733 1.49955 33.3535-1.49938 33.3535-1.49945 7.49734ZM-4.49838 8.99681 0 0 4.49842 8.99679ZM4.49848 31.8541 0.00010495 40.8509-4.49832 31.8541Z" transform="matrix(1 0 0 -1.00141 75.5 310.79)"/><path d="M7.52507-1.35345 50.9875-0.50849 50.9292 2.48988 7.46678 1.64491ZM8.90766 4.67243 0 0 9.08254-4.32267Z" transform="matrix(1 0 0 -1.00141 596.5 387.008)"/><path d="M271.015 384.636 343.359 385.525 343.322 388.528 270.978 387.639ZM272.441 390.66 263.5 386.045 272.551 381.651Z"/><g><g><g><path d="M61.5521 54.0313C65.7083 55.5156 69.6667 57.1979 72.9323 59.8698 74.3177 60.9583 75.1094 62.5417 75.1094 64.3229L76.8906 79.6615C76.9896 80.3542 76.6927 81.0469 76.099 81.4427L76.099 81.4427C74.4167 82.5313 72.6354 83.4219 70.7552 84.0156L70.7552 87.1823 73.4271 87.1823C75.1094 86.4896 76.7917 85.6979 78.276 84.7083L78.276 84.7083C80.0573 83.5208 81.0469 81.3438 80.75 79.1667L79.1667 64.224C79.0677 61.3542 77.7813 58.6823 75.5052 56.901 71.8438 53.8333 67.4896 51.9531 62.9375 50.3698L58.0885 48.3906C57.6927 48.1927 57.4948 47.8958 57.4948 47.5L57.4948 45.125C61.2552 42.1563 63.4323 37.6042 63.4323 32.7552L63.4323 29.1927C64.026 29.5885 64.7188 29.6875 65.4115 29.7865L63.7292 24.8385C63.5313 24.1458 63.3333 23.4531 63.2344 22.7604 62.4427 17.1198 59.0781 13.1615 54.4271 10.6875 54.0313 10.4896 53.5365 10.4896 53.1406 10.7865L52.25 11.4792 51.2604 10.0938C50.9635 9.69792 50.5677 9.30208 50.0729 9.20313 49.1823 9.00521 48.2917 8.90625 47.401 8.90625 39.5833 8.90625 33.0521 15.0417 31.6667 23.0573L31.6667 23.75 31.6667 23.75 31.6667 25.4323C31.6667 27.6094 31.2708 29.6875 30.3802 31.6667L28.6979 35.625C28.6979 35.625 29.8854 35.3281 31.8646 34.7344 32.3594 38.7917 34.4375 42.4531 37.6042 44.9271L37.6042 47.401C37.6042 47.7969 37.4063 48.1927 37.0104 48.2917L32.1615 50.2708C27.6094 51.8542 23.2552 53.7344 19.5938 56.8021 17.3177 58.5833 15.9323 61.2552 15.8333 64.125L14.151 79.1667C13.8542 81.3438 14.8438 83.5208 16.625 84.7083 18.1094 85.6979 19.7917 86.4896 21.474 87.1823L24.2448 87.1823 24.2448 84.1146C22.3646 83.4219 20.5833 82.6302 18.901 81.5417 18.3073 81.1458 18.0104 80.4531 18.1094 79.7604L19.7917 64.5208 19.7917 64.3229C19.7917 62.5417 20.6823 60.9583 22.0677 59.8698 25.3333 57.1979 29.2917 55.5156 33.4479 54.0313L35.0313 53.5365C37.901 55.3177 42.4531 56.4063 47.5 56.4063 52.5469 56.4063 57.099 55.3177 60.0677 53.5365L61.5521 54.0313ZM35.625 33.5469C42.3542 31.2708 52.0521 27.3125 56.4063 21.7708 57.2969 23.1563 58.2865 24.4427 59.375 25.7292L59.375 32.6563C59.375 39.1875 54.0313 44.5313 47.5 44.5313 41.2656 44.5313 36.1198 39.7813 35.625 33.5469ZM39.5833 51.3594C40.7708 50.4688 41.5625 48.9844 41.5625 47.401L41.5625 47.3021C45.3229 48.8854 49.6771 48.8854 53.4375 47.3021L53.4375 47.401C53.4375 48.8854 54.1302 50.3698 55.3177 51.3594 52.7448 52.151 50.0729 52.5469 47.401 52.4479 44.8281 52.4479 42.1563 52.0521 39.5833 51.3594Z" transform="matrix(1 0 0 1.01196 830 30.0425)"/><path d="M68.875 64.6198C68.875 63.2344 67.7865 62.1458 66.401 62.1458L66.401 62.1458 28.6979 62.1458C27.3125 62.1458 26.224 63.2344 26.224 64.6198L26.224 64.6198 26.224 89.2604 18.7031 89.2604 18.7031 90.5469C18.7031 91.9323 19.7917 93.0208 21.1771 93.0208L73.9219 93.0208C75.3073 93.0208 76.3958 91.9323 76.3958 90.5469L76.3958 89.2604 68.875 89.2604 68.875 64.6198ZM42.3542 80.9479 40.9688 82.3333 35.4271 76.7917 40.9688 71.25 42.3542 72.6354 38.1979 76.7917 42.3542 80.9479ZM46.1146 83.0261 44.3333 82.2344 48.9844 71.0521 50.7656 71.8438 46.1146 83.0261ZM54.0313 82.4323 52.6458 81.0469 56.8021 76.8906 52.6458 72.7344 54.0313 71.349 59.5729 76.8906 54.0313 82.4323Z" transform="matrix(1 0 0 1.01196 830 30.0425)"/></g></g></g><text font-family="Calibri,Calibri_MSFontService,sans-serif" font-weight="400" font-size="24" transform="matrix(1 0 0 1.00141 20.5218 181)">API Component</text><text font-family="Calibri,Calibri_MSFontService,sans-serif" font-weight="400" font-size="24" transform="matrix(1 0 0 1.00141 20.056 35)">Hospital Information System</text><text font-family="Calibri,Calibri_MSFontService,sans-serif" font-weight="400" font-size="24" transform="matrix(1 0 0 1.00141 25.1154 336)">CBR Component</text><path d="M470.92 270.883 470.92 283.613 178.5 283.613 179.999 282.112 179.999 301.21 177.001 301.21 177.001 280.61 469.42 280.61 467.921 282.112 467.921 270.883ZM182.998 299.708 178.5 308.718 174.002 299.708Z"/><path d="M342.5 335.641C342.5 321.446 353.992 309.938 368.167 309.938L570.833 309.938C585.008 309.938 596.5 321.446 596.5 335.641L596.5 438.452C596.5 452.648 585.008 464.156 570.833 464.156L368.167 464.156C353.992 464.156 342.5 452.648 342.5 438.452Z" stroke="#C9C9C9" stroke-width="2.99893" stroke-miterlimit="8" fill="#E7E6E6" fill-rule="evenodd"/><path d="M362.5 363.514C362.5 356.047 368.544 349.994 376 349.994L563 349.994C570.456 349.994 576.5 356.047 576.5 363.514L576.5 417.59C576.5 425.056 570.456 431.109 563 431.109L376 431.109C368.544 431.109 362.5 425.056 362.5 417.59Z" stroke="#C9C9C9" stroke-width="2.99893" stroke-miterlimit="8" fill="#FFFFFF" fill-rule="evenodd"/><text font-family="Aptos,Aptos_MSFontService,sans-serif" font-weight="700" font-size="16" transform="matrix(1 0 0 1.00141 375.191 377)">XES2NEST:</text><text font-family="Aptos,Aptos_MSFontService,sans-serif" font-weight="400" font-size="16" transform="matrix(1 0 0 1.00141 375.191 396)">Conversion from XES</text><text font-family="Aptos,Aptos_MSFontService,sans-serif" font-weight="400" font-size="16" transform="matrix(1 0 0 1.00141 375.191 415)">traces to NEST graphs.</text><text font-family="Calibri,Calibri_MSFontService,sans-serif" font-weight="400" font-size="24" transform="matrix(1 0 0 1.00141 359.658 338)">Graph Component</text><path d="M645.5 333.972C645.5 319.592 657.141 307.935 671.5 307.935L902.5 307.935C916.859 307.935 928.5 319.592 928.5 333.972L928.5 438.118C928.5 452.498 916.859 464.156 902.5 464.156L671.5 464.156C657.141 464.156 645.5 452.498 645.5 438.118Z" stroke="#C9C9C9" stroke-width="2.99893" stroke-miterlimit="8" fill="#E7E6E6" fill-rule="evenodd"/><g><g><g><path d="M76.0001 18C76.0001 22.4183 63.464 26 48 26 32.536 26 20 22.4183 20 18 20 13.5817 32.536 10 48 10 63.464 10 76.0001 13.5817 76.0001 18Z" stroke="#0D0D0D" fill="#FFFFFF" transform="matrix(1 0 0 1.00141 835 343.485)"/><path d="M68 38C66.8 38 66 37.2 66 36 66 34.8 66.8 34 68 34 69.2 34 70.0001 34.8 70.0001 36 70.0001 37.2 69.2 38 68 38ZM48 30C32.6 30 20 26.4 20 22L20 38C20 42.4 32.6 46 48 46 63.4 46 76.0001 42.4 76.0001 38L76.0001 22C76.0001 26.4 63.4 30 48 30Z" stroke="#0D0D0D" fill="#FFFFFF" transform="matrix(1 0 0 1.00141 835 343.485)"/><path d="M68 58C66.8 58 66 57.2 66 56 66 54.8 66.8 54 68 54 69.2 54 70.0001 54.8 70.0001 56 70.0001 57.2 69.2 58 68 58ZM48 50C32.6 50 20 46.4 20 42L20 58C20 62.4 32.6 66 48 66 63.4 66 76.0001 62.4 76.0001 58L76.0001 42C76.0001 46.4 63.4 50 48 50Z" stroke="#0D0D0D" fill="#FFFFFF" transform="matrix(1 0 0 1.00141 835 343.485)"/><path d="M68 78.0001C66.8 78.0001 66 77.2001 66 76.0001 66 74.8001 66.8 74.0001 68 74.0001 69.2 74.0001 70.0001 74.8001 70.0001 76.0001 70.0001 77.2001 69.2 78.0001 68 78.0001ZM48 70.0001C32.6 70.0001 20 66.4 20 62L20 78.0001C20 82.4001 32.6 86.0001 48 86.0001 63.4 86.0001 76.0001 82.4001 76.0001 78.0001L76.0001 62C76.0001 66.4 63.4 70.0001 48 70.0001Z" stroke="#0D0D0D" fill="#FFFFFF" transform="matrix(1 0 0 1.00141 835 343.485)"/></g></g></g><path d="M665.5 363.681C665.5 356.122 671.619 349.994 679.167 349.994L832.833 349.994C840.381 349.994 846.5 356.122 846.5 363.681L846.5 418.424C846.5 425.983 840.381 432.11 832.833 432.11L679.167 432.11C671.619 432.11 665.5 425.983 665.5 418.424Z" stroke="#C9C9C9" stroke-width="2.99893" stroke-miterlimit="8" fill="#FFFFFF" fill-rule="evenodd"/><text font-family="Aptos,Aptos_MSFontService,sans-serif" font-weight="700" font-size="16" transform="matrix(1 0 0 1.00141 678.835 378)">Relational Database:</text><text font-family="Aptos,Aptos_MSFontService,sans-serif" font-weight="400" font-size="16" transform="matrix(1 0 0 1.00141 678.835 397)">Indexing of logs,</text><text font-family="Aptos,Aptos_MSFontService,sans-serif" font-weight="400" font-size="16" transform="matrix(1 0 0 1.00141 678.835 416)">traces and metadata.</text><text font-family="Calibri,Calibri_MSFontService,sans-serif" font-weight="400" font-size="24" transform="matrix(1 0 0 1.00141 664.245 338)">Database Component</text></g></svg>